<svg id="图层_1" data-name="图层 1" xmlns="http://www.w3.org/2000/svg" viewBox="0 0 80 80"><defs><style>.cls-1{fill:#5790f9;}</style></defs><title>service</title><path class="cls-1" d="M57.48,33.25V43.77a6.15,6.15,0,0,0,1.33-1,5.93,5.93,0,0,0,1.76-4.22A6,6,0,0,0,57.48,33.25Z"/><path class="cls-1" d="M19.43,38.54a5.93,5.93,0,0,0,1.76,4.22,6.22,6.22,0,0,0,1.11.88v-10c0-.11,0-.21,0-.31A6,6,0,0,0,19.43,38.54Z"/><path class="cls-1" d="M40,54.88a2.85,2.85,0,0,0,0,5.69h.13a2.85,2.85,0,0,0-.1-5.69Z"/><path class="cls-1" d="M40,0A40,40,0,1,0,80,40,40,40,0,0,0,40,0ZM60.89,44.83A8.75,8.75,0,0,1,57.47,47a16.95,16.95,0,0,1-5.16,11.52,17.51,17.51,0,0,1-5.58,3.67,17.81,17.81,0,0,1-6.57,1.34h-.27a5.79,5.79,0,1,1,5.9-5.91,6,6,0,0,1-.28,1.9,14.6,14.6,0,0,0,4.75-3.11,13.93,13.93,0,0,0,4.28-10.05V33.67a14,14,0,0,0-4.28-10,14.94,14.94,0,0,0-20.75,0,14,14,0,0,0-4.27,10.06l.08,12.13a1.47,1.47,0,0,1-1.77,1.45A8.95,8.95,0,0,1,22.71,30a17.72,17.72,0,0,1,1-3,17.21,17.21,0,0,1,3.78-5.46,17.55,17.55,0,0,1,5.59-3.67,18.1,18.1,0,0,1,13.67,0,17.51,17.51,0,0,1,5.58,3.67A17.21,17.21,0,0,1,56.09,27a16.53,16.53,0,0,1,1,3,8.93,8.93,0,0,1,3.83,14.9Z"/></svg>